<svg width="193" height="62" viewBox="0 0 193 62" fill="none" xmlns="http://www.w3.org/2000/svg">
<path d="M41.65 26.32V34.15C40.17 34.48 38.59 34.9 36.9 35.38C34.0122 36.2928 31.074 37.0373 28.1 37.61V29.8C29.72 29.5 31.43 29.03 35.37 27.9C37.57 27.3 39.6633 26.7733 41.65 26.32Z" fill="white"/>
<path d="M20.94 8.67074e-05H20.34C17.88 8.67074e-05 10.34 -0.0799131 5.22 4.62009L4.91 4.92009C0.0699997 9.63009 0 16.4001 0 18.0001C0.0776764 23.4201 2.19504 28.6117 5.93 32.5401C6.3 32.9101 6.68 33.2701 7.09 33.6101C12.2 37.9401 18.14 38.3701 20.91 38.4601V54.2801H20.73H20.48C20.23 54.2801 19.92 54.3701 19.57 54.4101L18.43 54.5401C18.04 54.5401 17.66 54.6201 17.27 54.6401H16.44H16.36C13.0617 54.7956 9.83282 53.6583 7.36 51.4701C5.47036 49.7536 4.16008 47.493 3.61 45.0001V44.9301C2.63582 46.4895 2.11953 48.2914 2.12 50.1301C2.11737 50.9015 2.20803 51.6704 2.39 52.4201C2.39 52.4801 2.39 52.5301 2.39 52.5701C2.39 52.6101 2.39 52.7601 2.47 52.8501C2.75612 53.7781 3.17369 54.6604 3.71 55.4701C4.32349 56.2963 5.00955 57.066 5.76 57.7701L6 58.0001L6.17 58.1601C8.31009 59.7859 10.799 60.8917 13.44 61.3901L14.28 61.5701L15.07 61.7001H15.16L15.78 61.7901L16.99 61.9001C17.82 61.9601 18.56 61.9801 19.2 62.0001H19.77C20.32 62.0001 20.77 62.0001 21.15 62.0001H28.1V8.67074e-05H20.94ZM20.94 26.9201V30.3701C19.7862 30.222 18.6504 29.9573 17.55 29.5801C15.8387 28.9834 14.2246 28.1376 12.76 27.0701C10.8932 25.7938 9.43478 24.0054 8.56 21.9201C8.50524 21.8 8.45848 21.6764 8.42 21.5501C7.62574 19.4109 7.46601 17.0879 7.96 14.8601C8.1692 14.0818 8.482 13.3351 8.89 12.6401C9.88266 11.0225 11.2895 9.69959 12.9651 8.80821C14.6406 7.91683 16.5238 7.48938 18.42 7.57009H18.79H19.1H19.29H19.57H19.68C19.868 7.58616 20.055 7.61287 20.24 7.65009L20.98 7.79009L20.94 26.9201Z" fill="white"/>
<path d="M70.68 39.88C69.8648 36.2639 67.9422 32.992 65.18 30.52C64.75 30.15 64.3 29.81 63.85 29.52C61.8204 28.0366 59.5506 26.9135 57.14 26.2C54.4445 25.4426 51.6483 25.1053 48.85 25.2V7.75H48.96H49H49.25C49.51 7.75 49.81 7.66 50.16 7.62L51.34 7.49C51.72 7.49 52.1 7.41 52.49 7.39H53.33C56.67 7.20863 59.9469 8.35123 62.45 10.57C64.3257 12.2782 65.6284 14.5237 66.18 17V17.07C67.1532 15.5101 67.6694 13.7086 67.67 11.87C67.6693 11.0982 67.5753 10.3292 67.39 9.58C67.0979 8.4923 66.6319 7.45897 66.01 6.52C65.3605 5.60141 64.6127 4.75642 63.78 4L63.6 3.84C61.4607 2.22501 58.9753 1.1295 56.34 0.64C56.18 0.64 56.02 0.57 55.86 0.55C55.1333 0.403333 54.4433 0.293333 53.79 0.22L53.08 0.15H52.71C51.86 0.05 51.12 0 50.47 0H41.68V24V62H49.47C51.93 62 59.47 62.09 64.59 57.39L64.91 57.09C67.2799 54.9667 69.0577 52.2643 70.0691 49.2474C71.0806 46.2306 71.2911 43.0027 70.68 39.88ZM58.68 53.44C56.01 55.44 51.63 55.81 51.43 55.8H51.06H50.76H50.56H50.29H50.18L48.88 55.57V36.57V33C51.1028 32.5535 53.4063 32.7405 55.528 33.5397C57.6496 34.3389 59.5041 35.718 60.88 37.52C64.84 43 62.55 50.6 58.71 53.44H58.68Z" fill="white"/>
<path d="M84.3054 41.1276V41.977H83.1522V45.48H82.092V41.977H80.9388V41.1276H84.3054ZM85.8977 42.597C86.0217 42.4068 86.1767 42.258 86.3627 42.1506C86.5487 42.039 86.7553 41.9832 86.9827 41.9832V43.1054H86.6913C86.4267 43.1054 86.2283 43.1632 86.0961 43.279C85.9638 43.3906 85.8977 43.589 85.8977 43.8742V45.48H84.8375V42.0204H85.8977V42.597ZM90.7506 43.6944C90.7506 43.7936 90.7444 43.8969 90.732 44.0044H88.3326C88.3492 44.2193 88.4174 44.3846 88.5372 44.5004C88.6612 44.612 88.8121 44.6678 88.9898 44.6678C89.2544 44.6678 89.4383 44.5562 89.5416 44.333H90.67C90.6122 44.5603 90.5068 44.7649 90.3538 44.9468C90.205 45.1286 90.017 45.2712 89.7896 45.3746C89.5623 45.4779 89.3081 45.5296 89.027 45.5296C88.6881 45.5296 88.3864 45.4572 88.1218 45.3126C87.8573 45.1679 87.6506 44.9612 87.5018 44.6926C87.353 44.4239 87.2786 44.1098 87.2786 43.7502C87.2786 43.3906 87.351 43.0764 87.4956 42.8078C87.6444 42.5391 87.8511 42.3324 88.1156 42.1878C88.3802 42.0431 88.684 41.9708 89.027 41.9708C89.3618 41.9708 89.6594 42.041 89.9198 42.1816C90.1802 42.3221 90.3828 42.5226 90.5274 42.783C90.6762 43.0434 90.7506 43.3472 90.7506 43.6944ZM89.6656 43.4154C89.6656 43.2335 89.6036 43.0888 89.4796 42.9814C89.3556 42.8739 89.2006 42.8202 89.0146 42.8202C88.8369 42.8202 88.686 42.8718 88.562 42.9752C88.4422 43.0785 88.3678 43.2252 88.3388 43.4154H89.6656ZM93.4179 41.9832C93.823 41.9832 94.1454 42.1154 94.3851 42.38C94.629 42.6404 94.7509 43 94.7509 43.4588V45.48H93.6969V43.6014C93.6969 43.3699 93.637 43.1901 93.5171 43.062C93.3973 42.9338 93.2361 42.8698 93.0335 42.8698C92.831 42.8698 92.6698 42.9338 92.5499 43.062C92.4301 43.1901 92.3701 43.3699 92.3701 43.6014V45.48H91.3099V42.0204H92.3701V42.4792C92.4776 42.3262 92.6223 42.2064 92.8041 42.1196C92.986 42.0286 93.1906 41.9832 93.4179 41.9832ZM95.2769 43.744C95.2769 43.3885 95.343 43.0764 95.4753 42.8078C95.6117 42.5391 95.7956 42.3324 96.0271 42.1878C96.2585 42.0431 96.5169 41.9708 96.8021 41.9708C97.0294 41.9708 97.2361 42.0183 97.4221 42.1134C97.6122 42.2084 97.761 42.3366 97.8685 42.4978V40.892H98.9287V45.48H97.8685V44.984C97.7693 45.1493 97.6267 45.2816 97.4407 45.3808C97.2588 45.48 97.0459 45.5296 96.8021 45.5296C96.5169 45.5296 96.2585 45.4572 96.0271 45.3126C95.7956 45.1638 95.6117 44.955 95.4753 44.6864C95.343 44.4136 95.2769 44.0994 95.2769 43.744ZM97.8685 43.7502C97.8685 43.4856 97.7941 43.2769 97.6453 43.124C97.5006 42.971 97.3229 42.8946 97.1121 42.8946C96.9013 42.8946 96.7215 42.971 96.5727 43.124C96.428 43.2728 96.3557 43.4794 96.3557 43.744C96.3557 44.0085 96.428 44.2193 96.5727 44.3764C96.7215 44.5293 96.9013 44.6058 97.1121 44.6058C97.3229 44.6058 97.5006 44.5293 97.6453 44.3764C97.7941 44.2234 97.8685 44.0147 97.8685 43.7502ZM101.103 45.5296C100.801 45.5296 100.533 45.4779 100.297 45.3746C100.061 45.2712 99.8755 45.1307 99.7391 44.953C99.6027 44.7711 99.5262 44.5686 99.5097 44.3454H100.557C100.57 44.4652 100.626 44.5624 100.725 44.6368C100.824 44.7112 100.946 44.7484 101.091 44.7484C101.223 44.7484 101.324 44.7236 101.394 44.674C101.469 44.6202 101.506 44.552 101.506 44.4694C101.506 44.3702 101.454 44.2978 101.351 44.2524C101.248 44.2028 101.08 44.149 100.849 44.0912C100.601 44.0333 100.394 43.9734 100.229 43.9114C100.064 43.8452 99.9209 43.744 99.8011 43.6076C99.6812 43.467 99.6213 43.279 99.6213 43.0434C99.6213 42.845 99.675 42.6652 99.7825 42.504C99.8941 42.3386 100.055 42.2084 100.266 42.1134C100.481 42.0183 100.735 41.9708 101.029 41.9708C101.463 41.9708 101.804 42.0782 102.052 42.2932C102.304 42.5081 102.448 42.7933 102.486 43.1488H101.506C101.49 43.0289 101.436 42.9338 101.345 42.8636C101.258 42.7933 101.142 42.7582 100.998 42.7582C100.874 42.7582 100.779 42.783 100.712 42.8326C100.646 42.878 100.613 42.9421 100.613 43.0248C100.613 43.124 100.665 43.1984 100.768 43.248C100.876 43.2976 101.041 43.3472 101.264 43.3968C101.521 43.4629 101.729 43.529 101.89 43.5952C102.052 43.6572 102.192 43.7605 102.312 43.9052C102.436 44.0457 102.5 44.2358 102.504 44.4756C102.504 44.6781 102.446 44.86 102.331 45.0212C102.219 45.1782 102.056 45.3022 101.841 45.3932C101.63 45.4841 101.384 45.5296 101.103 45.5296ZM108.199 41.1276L106.693 44.0416V45.48H105.632V44.0416L104.126 41.1276H105.329L106.172 42.9504L107.009 41.1276H108.199ZM110.201 45.5296C109.862 45.5296 109.556 45.4572 109.284 45.3126C109.015 45.1679 108.802 44.9612 108.645 44.6926C108.492 44.4239 108.416 44.1098 108.416 43.7502C108.416 43.3947 108.494 43.0826 108.651 42.814C108.808 42.5412 109.023 42.3324 109.296 42.1878C109.569 42.0431 109.875 41.9708 110.214 41.9708C110.552 41.9708 110.858 42.0431 111.131 42.1878C111.404 42.3324 111.619 42.5412 111.776 42.814C111.933 43.0826 112.012 43.3947 112.012 43.7502C112.012 44.1056 111.931 44.4198 111.77 44.6926C111.613 44.9612 111.396 45.1679 111.119 45.3126C110.846 45.4572 110.54 45.5296 110.201 45.5296ZM110.201 44.612C110.404 44.612 110.575 44.5376 110.716 44.3888C110.86 44.24 110.933 44.0271 110.933 43.7502C110.933 43.4732 110.862 43.2604 110.722 43.1116C110.586 42.9628 110.416 42.8884 110.214 42.8884C110.007 42.8884 109.835 42.9628 109.699 43.1116C109.563 43.2562 109.494 43.4691 109.494 43.7502C109.494 44.0271 109.56 44.24 109.693 44.3888C109.829 44.5376 109.999 44.612 110.201 44.612ZM115.99 42.0204V45.48H114.93V45.0088C114.823 45.1617 114.676 45.2857 114.49 45.3808C114.308 45.4717 114.105 45.5172 113.882 45.5172C113.618 45.5172 113.384 45.4593 113.182 45.3436C112.979 45.2237 112.822 45.0522 112.71 44.829C112.599 44.6058 112.543 44.3433 112.543 44.0416V42.0204H113.597V43.899C113.597 44.1304 113.657 44.3102 113.777 44.4384C113.897 44.5665 114.058 44.6306 114.26 44.6306C114.467 44.6306 114.63 44.5665 114.75 44.4384C114.87 44.3102 114.93 44.1304 114.93 43.899V42.0204H115.99ZM121.959 45.48H120.899L119.126 42.7954V45.48H118.066V41.1276H119.126L120.899 43.8246V41.1276H121.959V45.48ZM125.989 43.6944C125.989 43.7936 125.983 43.8969 125.97 44.0044H123.571C123.587 44.2193 123.656 44.3846 123.775 44.5004C123.899 44.612 124.05 44.6678 124.228 44.6678C124.493 44.6678 124.677 44.5562 124.78 44.333H125.908C125.85 44.5603 125.745 44.7649 125.592 44.9468C125.443 45.1286 125.255 45.2712 125.028 45.3746C124.801 45.4779 124.546 45.5296 124.265 45.5296C123.926 45.5296 123.625 45.4572 123.36 45.3126C123.096 45.1679 122.889 44.9612 122.74 44.6926C122.591 44.4239 122.517 44.1098 122.517 43.7502C122.517 43.3906 122.589 43.0764 122.734 42.8078C122.883 42.5391 123.089 42.3324 123.354 42.1878C123.618 42.0431 123.922 41.9708 124.265 41.9708C124.6 41.9708 124.898 42.041 125.158 42.1816C125.418 42.3221 125.621 42.5226 125.766 42.783C125.914 43.0434 125.989 43.3472 125.989 43.6944ZM124.904 43.4154C124.904 43.2335 124.842 43.0888 124.718 42.9814C124.594 42.8739 124.439 42.8202 124.253 42.8202C124.075 42.8202 123.924 42.8718 123.8 42.9752C123.68 43.0785 123.606 43.2252 123.577 43.4154H124.904ZM129.809 43.6944C129.809 43.7936 129.803 43.8969 129.791 44.0044H127.391C127.408 44.2193 127.476 44.3846 127.596 44.5004C127.72 44.612 127.871 44.6678 128.049 44.6678C128.313 44.6678 128.497 44.5562 128.6 44.333H129.729C129.671 44.5603 129.566 44.7649 129.413 44.9468C129.264 45.1286 129.076 45.2712 128.848 45.3746C128.621 45.4779 128.367 45.5296 128.086 45.5296C127.747 45.5296 127.445 45.4572 127.181 45.3126C126.916 45.1679 126.709 44.9612 126.561 44.6926C126.412 44.4239 126.337 44.1098 126.337 43.7502C126.337 43.3906 126.41 43.0764 126.554 42.8078C126.703 42.5391 126.91 42.3324 127.174 42.1878C127.439 42.0431 127.743 41.9708 128.086 41.9708C128.421 41.9708 128.718 42.041 128.979 42.1816C129.239 42.3221 129.442 42.5226 129.586 42.783C129.735 43.0434 129.809 43.3472 129.809 43.6944ZM128.724 43.4154C128.724 43.2335 128.662 43.0888 128.538 42.9814C128.414 42.8739 128.259 42.8202 128.073 42.8202C127.896 42.8202 127.745 42.8718 127.621 42.9752C127.501 43.0785 127.427 43.2252 127.398 43.4154H128.724ZM130.158 43.744C130.158 43.3885 130.224 43.0764 130.356 42.8078C130.493 42.5391 130.677 42.3324 130.908 42.1878C131.14 42.0431 131.398 41.9708 131.683 41.9708C131.91 41.9708 132.117 42.0183 132.303 42.1134C132.493 42.2084 132.642 42.3366 132.75 42.4978V40.892H133.81V45.48H132.75V44.984C132.65 45.1493 132.508 45.2816 132.322 45.3808C132.14 45.48 131.927 45.5296 131.683 45.5296C131.398 45.5296 131.14 45.4572 130.908 45.3126C130.677 45.1638 130.493 44.955 130.356 44.6864C130.224 44.4136 130.158 44.0994 130.158 43.744ZM132.75 43.7502C132.75 43.4856 132.675 43.2769 132.526 43.124C132.382 42.971 132.204 42.8946 131.993 42.8946C131.782 42.8946 131.603 42.971 131.454 43.124C131.309 43.2728 131.237 43.4794 131.237 43.744C131.237 44.0085 131.309 44.2193 131.454 44.3764C131.603 44.5293 131.782 44.6058 131.993 44.6058C132.204 44.6058 132.382 44.5293 132.526 44.3764C132.675 44.2234 132.75 44.0147 132.75 43.7502ZM135.718 44.5004L135.029 46.2798H134.354L134.713 44.5004H135.718ZM140.771 46.224L140.213 45.4738C140.047 45.5068 139.886 45.5234 139.729 45.5234C139.32 45.5234 138.944 45.4283 138.601 45.2382C138.262 45.048 137.991 44.7835 137.788 44.4446C137.59 44.1015 137.491 43.7171 137.491 43.2914C137.491 42.8656 137.59 42.4833 137.788 42.1444C137.991 41.8054 138.262 41.5409 138.601 41.3508C138.944 41.1606 139.32 41.0656 139.729 41.0656C140.138 41.0656 140.512 41.1606 140.851 41.3508C141.194 41.5409 141.463 41.8054 141.657 42.1444C141.856 42.4833 141.955 42.8656 141.955 43.2914C141.955 43.6634 141.878 44.0044 141.725 44.3144C141.577 44.6202 141.368 44.8744 141.099 45.077L142.054 46.224H140.771ZM138.576 43.2914C138.576 43.6758 138.679 43.9837 138.886 44.2152C139.097 44.4425 139.378 44.5562 139.729 44.5562C140.076 44.5562 140.353 44.4404 140.56 44.209C140.771 43.9775 140.876 43.6716 140.876 43.2914C140.876 42.907 140.771 42.6011 140.56 42.3738C140.353 42.1423 140.076 42.0266 139.729 42.0266C139.378 42.0266 139.097 42.1402 138.886 42.3676C138.679 42.5949 138.576 42.9028 138.576 43.2914ZM145.973 42.0204V45.48H144.913V45.0088C144.805 45.1617 144.659 45.2857 144.473 45.3808C144.291 45.4717 144.088 45.5172 143.865 45.5172C143.6 45.5172 143.367 45.4593 143.164 45.3436C142.962 45.2237 142.805 45.0522 142.693 44.829C142.582 44.6058 142.526 44.3433 142.526 44.0416V42.0204H143.58V43.899C143.58 44.1304 143.64 44.3102 143.76 44.4384C143.879 44.5665 144.041 44.6306 144.243 44.6306C144.45 44.6306 144.613 44.5665 144.733 44.4384C144.853 44.3102 144.913 44.1304 144.913 43.899V42.0204H145.973ZM146.524 43.744C146.524 43.3885 146.59 43.0764 146.722 42.8078C146.859 42.5391 147.042 42.3324 147.274 42.1878C147.505 42.0431 147.764 41.9708 148.049 41.9708C148.293 41.9708 148.506 42.0204 148.688 42.1196C148.874 42.2188 149.016 42.349 149.115 42.5102V42.0204H150.176V45.48H149.115V44.9902C149.012 45.1514 148.867 45.2816 148.681 45.3808C148.499 45.48 148.287 45.5296 148.043 45.5296C147.762 45.5296 147.505 45.4572 147.274 45.3126C147.042 45.1638 146.859 44.955 146.722 44.6864C146.59 44.4136 146.524 44.0994 146.524 43.744ZM149.115 43.7502C149.115 43.4856 149.041 43.2769 148.892 43.124C148.747 42.971 148.57 42.8946 148.359 42.8946C148.148 42.8946 147.968 42.971 147.82 43.124C147.675 43.2728 147.603 43.4794 147.603 43.744C147.603 44.0085 147.675 44.2193 147.82 44.3764C147.968 44.5293 148.148 44.6058 148.359 44.6058C148.57 44.6058 148.747 44.5293 148.892 44.3764C149.041 44.2234 149.115 44.0147 149.115 43.7502ZM152.003 40.892V45.48H150.943V40.892H152.003ZM153.304 41.6608C153.118 41.6608 152.965 41.607 152.845 41.4996C152.73 41.388 152.672 41.2516 152.672 41.0904C152.672 40.925 152.73 40.7886 152.845 40.6812C152.965 40.5696 153.118 40.5138 153.304 40.5138C153.486 40.5138 153.635 40.5696 153.751 40.6812C153.871 40.7886 153.93 40.925 153.93 41.0904C153.93 41.2516 153.871 41.388 153.751 41.4996C153.635 41.607 153.486 41.6608 153.304 41.6608ZM153.831 42.0204V45.48H152.771V42.0204H153.831ZM156.528 44.581V45.48H155.988C155.604 45.48 155.304 45.387 155.089 45.201C154.874 45.0108 154.767 44.7029 154.767 44.2772V42.9008H154.345V42.0204H154.767V41.1772H155.827V42.0204H156.522V42.9008H155.827V44.2896C155.827 44.3929 155.852 44.4673 155.902 44.5128C155.951 44.5582 156.034 44.581 156.15 44.581H156.528ZM160.652 42.0204L158.482 47.123H157.342L158.135 45.3622L156.728 42.0204H157.912L158.712 44.1842L159.505 42.0204H160.652ZM166.082 41.1276L164.575 44.0416V45.48H163.515V44.0416L162.009 41.1276H163.211L164.055 42.9504L164.892 41.1276H166.082ZM168.084 45.5296C167.745 45.5296 167.439 45.4572 167.166 45.3126C166.898 45.1679 166.685 44.9612 166.528 44.6926C166.375 44.4239 166.298 44.1098 166.298 43.7502C166.298 43.3947 166.377 43.0826 166.534 42.814C166.691 42.5412 166.906 42.3324 167.179 42.1878C167.452 42.0431 167.757 41.9708 168.096 41.9708C168.435 41.9708 168.741 42.0431 169.014 42.1878C169.287 42.3324 169.502 42.5412 169.659 42.814C169.816 43.0826 169.894 43.3947 169.894 43.7502C169.894 44.1056 169.814 44.4198 169.653 44.6926C169.495 44.9612 169.278 45.1679 169.002 45.3126C168.729 45.4572 168.423 45.5296 168.084 45.5296ZM168.084 44.612C168.286 44.612 168.458 44.5376 168.599 44.3888C168.743 44.24 168.816 44.0271 168.816 43.7502C168.816 43.4732 168.745 43.2604 168.605 43.1116C168.468 42.9628 168.299 42.8884 168.096 42.8884C167.89 42.8884 167.718 42.9628 167.582 43.1116C167.445 43.2562 167.377 43.4691 167.377 43.7502C167.377 44.0271 167.443 44.24 167.576 44.3888C167.712 44.5376 167.881 44.612 168.084 44.612ZM173.873 42.0204V45.48H172.813V45.0088C172.705 45.1617 172.559 45.2857 172.373 45.3808C172.191 45.4717 171.988 45.5172 171.765 45.5172C171.5 45.5172 171.267 45.4593 171.064 45.3436C170.862 45.2237 170.705 45.0522 170.593 44.829C170.482 44.6058 170.426 44.3433 170.426 44.0416V42.0204H171.48V43.899C171.48 44.1304 171.54 44.3102 171.66 44.4384C171.779 44.5665 171.941 44.6306 172.143 44.6306C172.35 44.6306 172.513 44.5665 172.633 44.4384C172.753 44.3102 172.813 44.1304 172.813 43.899V42.0204H173.873ZM179.079 41.1276V41.977H177.926V45.48H176.866V41.977H175.713V41.1276H179.079ZM180.672 42.597C180.796 42.4068 180.951 42.258 181.137 42.1506C181.323 42.039 181.529 41.9832 181.757 41.9832V43.1054H181.465C181.201 43.1054 181.002 43.1632 180.87 43.279C180.738 43.3906 180.672 43.589 180.672 43.8742V45.48H179.611V42.0204H180.672V42.597ZM185.68 42.0204V45.48H184.619V45.0088C184.512 45.1617 184.365 45.2857 184.179 45.3808C183.997 45.4717 183.795 45.5172 183.572 45.5172C183.307 45.5172 183.074 45.4593 182.871 45.3436C182.669 45.2237 182.511 45.0522 182.4 44.829C182.288 44.6058 182.232 44.3433 182.232 44.0416V42.0204H183.286V43.899C183.286 44.1304 183.346 44.3102 183.466 44.4384C183.586 44.5665 183.747 44.6306 183.95 44.6306C184.157 44.6306 184.32 44.5665 184.44 44.4384C184.56 44.3102 184.619 44.1304 184.619 43.899V42.0204H185.68ZM187.849 45.5296C187.547 45.5296 187.278 45.4779 187.043 45.3746C186.807 45.2712 186.621 45.1307 186.485 44.953C186.348 44.7711 186.272 44.5686 186.255 44.3454H187.303C187.315 44.4652 187.371 44.5624 187.47 44.6368C187.57 44.7112 187.692 44.7484 187.836 44.7484C187.968 44.7484 188.07 44.7236 188.14 44.674C188.214 44.6202 188.252 44.552 188.252 44.4694C188.252 44.3702 188.2 44.2978 188.097 44.2524C187.993 44.2028 187.826 44.149 187.594 44.0912C187.346 44.0333 187.14 43.9734 186.974 43.9114C186.809 43.8452 186.666 43.744 186.547 43.6076C186.427 43.467 186.367 43.279 186.367 43.0434C186.367 42.845 186.421 42.6652 186.528 42.504C186.64 42.3386 186.801 42.2084 187.012 42.1134C187.227 42.0183 187.481 41.9708 187.774 41.9708C188.208 41.9708 188.549 42.0782 188.797 42.2932C189.049 42.5081 189.194 42.7933 189.231 43.1488H188.252C188.235 43.0289 188.181 42.9338 188.09 42.8636C188.004 42.7933 187.888 42.7582 187.743 42.7582C187.619 42.7582 187.524 42.783 187.458 42.8326C187.392 42.878 187.359 42.9421 187.359 43.0248C187.359 43.124 187.41 43.1984 187.514 43.248C187.621 43.2976 187.787 43.3472 188.01 43.3968C188.266 43.4629 188.475 43.529 188.636 43.5952C188.797 43.6572 188.938 43.7605 189.058 43.9052C189.182 44.0457 189.246 44.2358 189.25 44.4756C189.25 44.6781 189.192 44.86 189.076 45.0212C188.965 45.1782 188.801 45.3022 188.586 45.3932C188.376 45.4841 188.13 45.5296 187.849 45.5296ZM191.827 44.581V45.48H191.287C190.903 45.48 190.603 45.387 190.388 45.201C190.173 45.0108 190.066 44.7029 190.066 44.2772V42.9008H189.644V42.0204H190.066V41.1772H191.126V42.0204H191.82V42.9008H191.126V44.2896C191.126 44.3929 191.151 44.4673 191.2 44.5128C191.25 44.5582 191.333 44.581 191.448 44.581H191.827Z" fill="white"/>
<path d="M170.38 16.35H165.95V37.04H170.38V16.35Z" fill="white"/>
<path d="M98.97 16.35V37.04H94.54V28.84H88.36V24.55H94.54V16.35H98.97Z" fill="white"/>
<path d="M85.65 16.22H81.22V36.91H85.65V16.22Z" fill="white"/>
<path d="M109.23 26.34L104.55 37.04H99.74L106.96 20.54L109.23 26.34Z" fill="white"/>
<path d="M120.79 37.04H116.19L108.13 16.47H112.73L120.79 37.04Z" fill="white"/>
<path d="M131.05 26.34L126.37 37.04H121.56L128.77 20.54L131.05 26.34Z" fill="white"/>
<path d="M142.6 37.04H138L129.94 16.47H134.54L142.6 37.04Z" fill="white"/>
<path d="M153.04 26.34L148.36 37.04H143.55L150.76 20.54L153.04 26.34Z" fill="white"/>
<path d="M164.59 37.04H160L151.93 16.47H156.53L164.59 37.04Z" fill="white"/>
<path d="M178.09 16.35H173.66V37.04H178.09V16.35Z" fill="white"/>
<path d="M192 31.19C192.042 32.3878 191.737 33.5723 191.12 34.6C190.496 35.5253 189.592 36.2263 188.54 36.6C187.735 36.9161 186.875 37.069 186.01 37.05H179.21V33.05H186.21C186.926 33.1109 187.638 32.9043 188.21 32.47C188.401 32.27 188.549 32.0326 188.643 31.7727C188.738 31.5128 188.778 31.236 188.76 30.96C188.784 30.3761 188.579 29.8059 188.19 29.37C187.907 29.1059 187.573 28.9024 187.208 28.7717C186.844 28.641 186.456 28.586 186.07 28.61H179.27V24.71H185.65C185.964 24.7154 186.276 24.6784 186.58 24.6C186.8 24.5443 187.008 24.4458 187.19 24.31C187.342 24.1991 187.471 24.0599 187.57 23.9C187.658 23.7665 187.735 23.6261 187.8 23.48C187.91 23.186 187.964 22.8739 187.96 22.56C187.962 22.2493 187.922 21.9398 187.84 21.64C187.78 21.4154 187.671 21.2069 187.52 21.03C187.355 20.7834 187.118 20.5946 186.84 20.49C186.518 20.3806 186.18 20.3298 185.84 20.34H179.25V16.34H185.63C186.468 16.2978 187.303 16.4596 188.064 16.8115C188.825 17.1633 189.49 17.6947 190 18.36C190.888 19.4996 191.345 20.9163 191.29 22.36C191.357 23.8238 190.9 25.2636 190 26.42C190.832 27.0778 191.437 27.9802 191.73 29C191.849 29.3235 191.932 29.6587 191.98 30C192.008 30.396 192.014 30.7932 192 31.19Z" fill="white"/>
</svg>
